# xmcd
#
# Track frame offsets:
#	150
#	14717
#	32232
#	50558
#	68207
#	86038
#	103706
#	116500
#	127211
#	142440
#	158159
#	173611
#	185844
#	201175
#	215605
#	235832
#	249923
#	266486
#	286742
#	301319
#	317032
#
# Disc length: 4429 seconds
#
# Revision: 1
# Processed by: cddbd v1.5.2PL0 Copyright (c) Steve Scherf et al.
# Submitted via: EasyCDDAExtractor 12.0.1.1
#
DISCID=41114b15
DTITLE=Smokie - Smokie Mix 1
DYEAR=2000
DGENRE=Country
TTITLE0=Living Next Door to Alice
TTITLE1=Have You Ever Seen The Rain
TTITLE2=Boulevard of Broken Dreams
TTITLE3=Naked Love
TTITLE4=Lay back in the arms of someon
TTITLE5=Chasing shadows
TTITLE6=Take good care of my baby
TTITLE7=Needles And Pins
TTITLE8=Mexican Girl
TTITLE9=Be My Baby
TTITLE10=Mr.Tambourine Man
TTITLE11=Darlin
TTITLE12=Hot Girls And Summer Nights
TTITLE13=I'd Die For You
TTITLE14=(I Just) Died In Your Arms Ton
TTITLE15=You're So Vain
TTITLE16=Love Take Me Away (Sleeping Be
TTITLE17=Whiskey In The Jar
TTITLE18=You're So Different Tonight
TTITLE19=Norwegian Girl
TTITLE20=Only You
EXTD=
EXTT0=
EXTT1=
EXTT2=
EXTT3=
EXTT4=
EXTT5=
EXTT6=
EXTT7=
EXTT8=
EXTT9=
EXTT10=
EXTT11=
EXTT12=
EXTT13=
EXTT14=
EXTT15=
EXTT16=
EXTT17=
EXTT18=
EXTT19=
EXTT20=
PLAYORDER=
